<?xml version="1.0" encoding="utf-8"?>
<!-- Generator: Adobe Illustrator 26.0.3, SVG Export Plug-In . SVG Version: 6.00 Build 0)  -->
<svg version="1.1" id="Camada_1" xmlns="http://www.w3.org/2000/svg" xmlns:xlink="http://www.w3.org/1999/xlink" x="0px" y="0px"
	 viewBox="0 0 32 32" style="enable-background:new 0 0 32 32;" xml:space="preserve">
<style type="text/css">
	.st0{fill:#1420B3;}
	.st1{fill:url(#SVGID_1_);}
	.st2{fill:url(#SVGID_00000013181952462764507830000013573655352816284071_);}
	.st3{fill:url(#SVGID_00000176036392993939257300000005141145969329939605_);}
	.st4{fill:url(#SVGID_00000137104879274100636290000014119117142996438402_);}
	.st5{fill:#F2F2F2;}
</style>
<rect class="st0" width="32" height="32"/>
<g>
	<g>
		<g>
			
				<linearGradient id="SVGID_1_" gradientUnits="userSpaceOnUse" x1="557.6334" y1="575.2571" x2="542.6295" y2="593.3219" gradientTransform="matrix(0 1 -1 0 598.6456 -537.6663)">
				<stop  offset="0" style="stop-color:#FF5D00"/>
				<stop  offset="1" style="stop-color:#EB0051"/>
			</linearGradient>
			<path class="st1" d="M13.55,22.33c-0.71,0-1.4-0.08-2.07-0.23c-0.52-0.12-0.82-0.69-0.62-1.2c0.15-0.41,0.57-0.64,0.99-0.55
				c0.55,0.12,1.12,0.19,1.7,0.19c4.39,0,7.96-3.64,7.96-8.12c0-3.16-1.78-5.91-4.37-7.25c0,0,0,0,0,0
				c-1.08-0.56-2.29-0.87-3.58-0.87c-0.58,0-1.15,0.06-1.7,0.19c-0.42,0.09-0.83-0.15-0.99-0.55c-0.19-0.51,0.1-1.08,0.62-1.2
				c0.91-0.2,1.86-0.28,2.85-0.2c4.89,0.39,8.77,4.53,8.94,9.54c0.03,0.98-0.08,1.94-0.31,2.84l-0.01,0.04
				C21.84,19.19,18.04,22.33,13.55,22.33z"/>
			
				<linearGradient id="SVGID_00000147181158014951736250000014106230775470426774_" gradientUnits="userSpaceOnUse" x1="562.4611" y1="584.0361" x2="536.74" y2="575.4365" gradientTransform="matrix(0 1 -1 0 598.6456 -537.6663)">
				<stop  offset="0" style="stop-color:#FF5D00"/>
				<stop  offset="1" style="stop-color:#EB0051"/>
			</linearGradient>
			<path style="fill:url(#SVGID_00000147181158014951736250000014106230775470426774_);" d="M13.55,22.33
				c-0.71,0-1.4-0.08-2.07-0.23c-0.52-0.12-0.82-0.69-0.62-1.2c0.15-0.41,0.57-0.64,0.99-0.55c0.55,0.12,1.12,0.19,1.7,0.19
				c4.39,0,7.96-3.64,7.96-8.12c0-3.16-1.78-5.91-4.37-7.25c0.18,0.07,6.47,2.48,5.81,9.75l-0.01,0.04
				C21.84,19.19,18.04,22.33,13.55,22.33z"/>
		</g>
		
			<linearGradient id="SVGID_00000045590333242490034100000001132754787572757658_" gradientUnits="userSpaceOnUse" x1="12.4091" y1="11.1223" x2="14.1645" y2="11.1223">
			<stop  offset="0" style="stop-color:#FF5D00"/>
			<stop  offset="1" style="stop-color:#EB0051"/>
		</linearGradient>
		<path style="fill:url(#SVGID_00000045590333242490034100000001132754787572757658_);" d="M13.58,16.23h-0.59
			c-0.32,0-0.59-0.26-0.59-0.59V6.6c0-0.32,0.26-0.59,0.59-0.59h0.59c0.32,0,0.59,0.26,0.59,0.59v9.05
			C14.16,15.97,13.9,16.23,13.58,16.23z"/>
		
			<linearGradient id="SVGID_00000170997646257824971720000017445597831104064168_" gradientUnits="userSpaceOnUse" x1="143.8063" y1="395.3999" x2="145.252" y2="395.3999" gradientTransform="matrix(0.5602 0.8283 -0.8283 0.5602 258.3733 -324.6506)">
			<stop  offset="0" style="stop-color:#FF5D00"/>
			<stop  offset="1" style="stop-color:#EB0051"/>
		</linearGradient>
		<path style="fill:url(#SVGID_00000170997646257824971720000017445597831104064168_);" d="M9.78,18.25l-0.27-0.4
			c-0.15-0.22-0.09-0.52,0.13-0.67l3.54-2.4c0.22-0.15,0.52-0.09,0.67,0.13l0.27,0.4c0.15,0.22,0.09,0.52-0.13,0.67l-3.54,2.4
			C10.23,18.53,9.93,18.47,9.78,18.25z"/>
		<g>
			<path class="st5" d="M4.99,28c0.05,0.14,0.05,0.26-0.01,0.35c-0.06,0.09-0.17,0.13-0.32,0.13H4.49c-0.24,0-0.39-0.12-0.47-0.35
				l-0.06-0.19H2.69l-0.06,0.19c-0.07,0.23-0.23,0.35-0.47,0.35H1.99c-0.15,0-0.26-0.04-0.32-0.13C1.61,28.26,1.6,28.15,1.66,28
				l1.03-2.75c0.08-0.22,0.24-0.33,0.48-0.33h0.31c0.24,0,0.4,0.11,0.48,0.33L4.99,28z M3.73,27.25L3.32,26l-0.41,1.25H3.73z"/>
			<path class="st5" d="M7.82,25.67c0.13,0,0.24,0.04,0.31,0.11c0.07,0.07,0.1,0.17,0.1,0.31v1.89c0,0.53-0.12,0.92-0.36,1.16
				c-0.24,0.24-0.61,0.37-1.12,0.37c-0.57,0-0.97-0.16-1.22-0.47c-0.09-0.12-0.12-0.22-0.09-0.32c0.03-0.1,0.12-0.16,0.25-0.19
				l0.14-0.03c0.04-0.01,0.08-0.01,0.12-0.02c0.04,0,0.07,0,0.09,0.01c0.03,0,0.05,0.02,0.08,0.03c0.03,0.02,0.06,0.03,0.07,0.05
				c0.02,0.01,0.05,0.03,0.08,0.06c0.14,0.11,0.29,0.17,0.45,0.17c0.37,0,0.55-0.21,0.55-0.62v-0.29c-0.06,0.12-0.16,0.21-0.31,0.29
				c-0.15,0.07-0.31,0.11-0.48,0.11c-0.36,0-0.65-0.12-0.87-0.35c-0.22-0.24-0.33-0.56-0.33-0.97c0-0.41,0.11-0.74,0.33-0.97
				c0.22-0.23,0.51-0.35,0.86-0.35c0.2,0,0.38,0.04,0.52,0.12c0.15,0.08,0.25,0.18,0.32,0.3c0.01-0.13,0.04-0.22,0.1-0.28
				c0.06-0.06,0.15-0.09,0.28-0.09H7.82z M6.77,27.59c0.16,0,0.29-0.06,0.39-0.17c0.1-0.11,0.15-0.27,0.15-0.47
				c0-0.2-0.05-0.36-0.15-0.47c-0.1-0.11-0.23-0.17-0.39-0.17c-0.16,0-0.29,0.06-0.39,0.17c-0.1,0.11-0.15,0.27-0.15,0.47
				c0,0.2,0.05,0.36,0.15,0.47C6.48,27.53,6.61,27.59,6.77,27.59z"/>
			<path class="st5" d="M10.24,28.52c-0.45,0-0.81-0.13-1.08-0.39c-0.27-0.26-0.41-0.61-0.41-1.05c0-0.43,0.14-0.78,0.41-1.05
				c0.27-0.27,0.62-0.4,1.06-0.4c0.41,0,0.74,0.11,0.99,0.32c0.25,0.22,0.39,0.52,0.43,0.91c0.02,0.28-0.11,0.42-0.42,0.42H9.71
				c0,0.19,0.06,0.33,0.16,0.44c0.1,0.1,0.25,0.16,0.43,0.16c0.18,0,0.34-0.05,0.48-0.16c0.03-0.03,0.06-0.05,0.08-0.06
				c0.02-0.01,0.04-0.03,0.07-0.04c0.03-0.01,0.05-0.02,0.08-0.03c0.02,0,0.05,0,0.09,0c0.03,0,0.07,0.01,0.11,0.02l0.07,0.02
				c0.14,0.03,0.22,0.09,0.24,0.16c0.02,0.08-0.01,0.17-0.11,0.28c-0.12,0.15-0.28,0.26-0.48,0.34
				C10.73,28.48,10.5,28.52,10.24,28.52z M10.76,26.73c-0.01-0.15-0.06-0.27-0.16-0.36c-0.09-0.09-0.21-0.13-0.36-0.13
				c-0.15,0-0.27,0.04-0.36,0.13c-0.1,0.09-0.15,0.21-0.16,0.36H10.76z"/>
			<path class="st5" d="M13.92,25.63c0.37,0,0.63,0.1,0.8,0.31c0.17,0.2,0.25,0.53,0.25,0.97v1.16c0,0.13-0.04,0.24-0.11,0.31
				c-0.07,0.07-0.17,0.11-0.31,0.11h-0.13c-0.13,0-0.24-0.04-0.31-0.11c-0.07-0.07-0.11-0.17-0.11-0.31V27
				c0-0.21-0.04-0.36-0.11-0.45c-0.07-0.1-0.19-0.14-0.34-0.14c-0.16,0-0.28,0.05-0.35,0.15c-0.07,0.1-0.1,0.25-0.1,0.47v1.04
				c0,0.13-0.04,0.24-0.11,0.31c-0.07,0.07-0.17,0.11-0.31,0.11h-0.13c-0.13,0-0.24-0.04-0.31-0.11c-0.07-0.07-0.11-0.17-0.11-0.31
				v-1.99c0-0.13,0.04-0.24,0.11-0.31c0.07-0.07,0.17-0.11,0.31-0.11h0.13c0.13,0,0.24,0.03,0.31,0.1c0.07,0.07,0.11,0.16,0.11,0.29
				c0.06-0.13,0.17-0.23,0.32-0.31C13.57,25.67,13.74,25.63,13.92,25.63z"/>
			<path class="st5" d="M16.61,28.52c-0.36,0-0.64-0.13-0.85-0.38c-0.21-0.26-0.32-0.61-0.32-1.06c0-0.45,0.11-0.81,0.32-1.06
				c0.21-0.25,0.49-0.38,0.85-0.38c0.18,0,0.34,0.04,0.5,0.13c0.16,0.08,0.26,0.2,0.33,0.34v-0.94c0-0.13,0.04-0.24,0.11-0.31
				c0.07-0.07,0.17-0.11,0.31-0.11h0.13c0.13,0,0.24,0.04,0.31,0.11c0.07,0.07,0.11,0.17,0.11,0.31v2.9c0,0.13-0.04,0.24-0.11,0.31
				c-0.07,0.07-0.17,0.11-0.31,0.11h-0.13c-0.13,0-0.23-0.03-0.31-0.08c-0.07-0.06-0.11-0.13-0.11-0.23v-0.09
				c-0.06,0.14-0.17,0.25-0.33,0.33C16.96,28.48,16.79,28.52,16.61,28.52z M16.94,27.75c0.16,0,0.29-0.06,0.39-0.19
				c0.1-0.12,0.15-0.29,0.15-0.5c0-0.21-0.05-0.37-0.15-0.5c-0.1-0.12-0.23-0.19-0.39-0.19c-0.16,0-0.29,0.06-0.39,0.19
				c-0.1,0.12-0.15,0.29-0.15,0.49c0,0.21,0.05,0.37,0.15,0.5C16.64,27.69,16.77,27.75,16.94,27.75z"/>
			<path class="st5" d="M20.08,28.52c-0.36,0-0.64-0.13-0.85-0.38c-0.21-0.26-0.32-0.61-0.32-1.06c0-0.45,0.11-0.81,0.32-1.06
				s0.49-0.38,0.85-0.38c0.18,0,0.34,0.04,0.5,0.13c0.16,0.08,0.27,0.2,0.33,0.34l0-0.06c0-0.13,0.03-0.22,0.11-0.28
				c0.07-0.06,0.18-0.09,0.31-0.09h0.13c0.13,0,0.24,0.04,0.31,0.11c0.07,0.07,0.11,0.17,0.11,0.31v1.98c0,0.13-0.04,0.24-0.11,0.31
				c-0.07,0.07-0.17,0.11-0.31,0.11h-0.13c-0.13,0-0.24-0.03-0.31-0.09c-0.07-0.06-0.11-0.15-0.11-0.27l0-0.05
				c-0.06,0.14-0.17,0.25-0.33,0.33C20.42,28.48,20.26,28.52,20.08,28.52z M20.4,27.75c0.16,0,0.29-0.06,0.39-0.19
				c0.1-0.12,0.15-0.29,0.15-0.5c0-0.21-0.05-0.37-0.15-0.5c-0.1-0.12-0.23-0.19-0.39-0.19c-0.16,0-0.29,0.06-0.39,0.19
				c-0.1,0.12-0.15,0.29-0.15,0.49c0,0.21,0.05,0.37,0.15,0.5C20.11,27.69,20.24,27.75,20.4,27.75z"/>
			<path class="st5" d="M24.79,29.39c-0.13,0-0.24-0.04-0.31-0.11c-0.07-0.07-0.11-0.17-0.11-0.31v-0.94
				c-0.06,0.14-0.17,0.26-0.33,0.34c-0.16,0.09-0.32,0.13-0.5,0.13c-0.35,0-0.64-0.13-0.85-0.38c-0.21-0.25-0.32-0.61-0.32-1.07
				c0-0.46,0.11-0.81,0.32-1.06c0.21-0.25,0.5-0.38,0.85-0.38c0.18,0,0.35,0.04,0.5,0.12c0.15,0.08,0.26,0.19,0.32,0.33v-0.09
				c0-0.1,0.04-0.18,0.11-0.23c0.07-0.06,0.18-0.08,0.31-0.08h0.13c0.13,0,0.24,0.04,0.31,0.11c0.07,0.07,0.11,0.17,0.11,0.31v2.9
				c0,0.13-0.04,0.24-0.11,0.31c-0.07,0.07-0.17,0.11-0.31,0.11H24.79z M23.87,27.75c0.16,0,0.29-0.06,0.39-0.18
				c0.1-0.12,0.15-0.29,0.15-0.5c0-0.21-0.05-0.38-0.15-0.5c-0.1-0.12-0.23-0.19-0.39-0.19c-0.16,0-0.29,0.06-0.39,0.19
				c-0.1,0.12-0.15,0.29-0.15,0.5c0,0.21,0.05,0.37,0.15,0.49C23.58,27.69,23.71,27.75,23.87,27.75z"/>
			<path class="st5" d="M28.31,25.67c0.13,0,0.24,0.04,0.31,0.11c0.07,0.07,0.11,0.17,0.11,0.31v1.99c0,0.13-0.04,0.24-0.11,0.31
				c-0.07,0.07-0.17,0.11-0.31,0.11h-0.13c-0.13,0-0.24-0.03-0.31-0.1c-0.07-0.07-0.11-0.16-0.11-0.29
				c-0.06,0.13-0.17,0.23-0.32,0.31c-0.15,0.08-0.31,0.12-0.5,0.12c-0.37,0-0.63-0.1-0.8-0.3c-0.17-0.2-0.25-0.53-0.25-0.97v-1.16
				c0-0.13,0.04-0.24,0.11-0.31c0.07-0.07,0.17-0.11,0.31-0.11h0.13c0.13,0,0.24,0.04,0.31,0.11c0.07,0.07,0.11,0.17,0.11,0.31v1.06
				c0,0.21,0.04,0.36,0.11,0.45c0.07,0.1,0.19,0.14,0.34,0.14c0.16,0,0.28-0.05,0.35-0.15c0.07-0.1,0.1-0.25,0.1-0.47v-1.04
				c0-0.13,0.04-0.24,0.11-0.31c0.07-0.07,0.17-0.11,0.31-0.11H28.31z"/>
			<g>
				<path class="st5" d="M29.79,25.45c-0.18,0-0.32-0.04-0.43-0.13c-0.11-0.09-0.16-0.21-0.16-0.38c0-0.17,0.05-0.29,0.16-0.38
					c0.11-0.09,0.25-0.13,0.43-0.13c0.17,0,0.31,0.05,0.42,0.14c0.11,0.09,0.17,0.22,0.17,0.38c0,0.16-0.06,0.29-0.17,0.38
					C30.1,25.4,29.96,25.45,29.79,25.45z M29.71,28.38c-0.15,0-0.26-0.04-0.34-0.12c-0.08-0.08-0.12-0.2-0.12-0.35v-1.73
					c0-0.15,0.04-0.27,0.12-0.35c0.08-0.08,0.19-0.12,0.34-0.12h0.15c0.15,0,0.26,0.04,0.34,0.12s0.12,0.19,0.12,0.35v1.73
					c0,0.15-0.04,0.27-0.12,0.35c-0.08,0.08-0.19,0.12-0.34,0.12H29.71z"/>
			</g>
		</g>
	</g>
</g>
</svg>
