<?xml version="1.0" encoding="utf-8"?>
<!-- Generator: Adobe Illustrator 26.0.3, SVG Export Plug-In . SVG Version: 6.00 Build 0)  -->
<svg version="1.1" id="Camada_1" xmlns="http://www.w3.org/2000/svg" xmlns:xlink="http://www.w3.org/1999/xlink" x="0px" y="0px"
	 viewBox="0 0 3000 3000" style="enable-background:new 0 0 3000 3000;" xml:space="preserve">
<style type="text/css">
	.st0{fill:url(#SVGID_1_);}
	.st1{fill:url(#SVGID_00000051381216264725848360000006260475433842683837_);}
	.st2{fill:url(#SVGID_00000143601007632773012500000009606130019891103163_);}
	.st3{fill:url(#SVGID_00000016778906731119260130000018356714213282731670_);}
	.st4{fill:#F2F2F2;}
</style>
<symbol  id="Novo_símbolo_5" viewBox="-92.06 -86.42 184.12 172.84">
	<g>
		<g>
			
				<linearGradient id="SVGID_1_" gradientUnits="userSpaceOnUse" x1="563.0621" y1="-16901.3477" x2="467.0133" y2="-17016.9902" gradientTransform="matrix(0 -1 1 0 16948.6465 537.6663)">
				<stop  offset="0.5475" style="stop-color:#FFF800"/>
				<stop  offset="1" style="stop-color:#FF5D00"/>
			</linearGradient>
			<path class="st0" d="M-15.7-40.5c-4.54,0-8.98,0.51-13.25,1.47c-3.36,0.74-5.24,4.41-3.99,7.67c0.99,2.6,3.68,4.12,6.33,3.52
				c3.52-0.78,7.17-1.19,10.91-1.19c28.09,0,50.96,23.31,50.96,51.99c0,20.25-11.39,37.83-27.99,46.41
				c-0.01,0.01-0.03,0.01-0.03,0.01c-6.89,3.57-14.69,5.58-22.94,5.58c-3.74,0-7.39-0.42-10.91-1.19c-2.66-0.6-5.34,0.93-6.33,3.52
				c-1.25,3.25,0.61,6.92,3.94,7.67c5.81,1.3,11.93,1.77,18.22,1.27c31.31-2.49,56.14-29.03,57.21-61.07
				c0.22-6.3-0.48-12.4-1.96-18.19l-0.06-0.23C37.38-20.41,13.09-40.5-15.7-40.5z"/>
			
				<linearGradient id="SVGID_00000096050889319349193300000012880033695025437069_" gradientUnits="userSpaceOnUse" x1="593.9666" y1="-16957.5469" x2="429.3112" y2="-16902.4961" gradientTransform="matrix(0 -1 1 0 16948.6465 537.6663)">
				<stop  offset="0.5475" style="stop-color:#FFF800"/>
				<stop  offset="1" style="stop-color:#FF5D00"/>
			</linearGradient>
			<path style="fill:url(#SVGID_00000096050889319349193300000012880033695025437069_);" d="M-15.7-40.5
				c-4.54,0-8.98,0.51-13.25,1.47c-3.36,0.74-5.24,4.41-3.99,7.67c0.99,2.6,3.68,4.12,6.33,3.52c3.52-0.78,7.17-1.19,10.91-1.19
				c28.09,0,50.96,23.31,50.96,51.99c0,20.25-11.39,37.83-27.99,46.41c1.13-0.45,41.41-15.85,37.21-62.39l-0.06-0.23
				C37.38-20.41,13.09-40.5-15.7-40.5z"/>
		</g>
		
			<linearGradient id="SVGID_00000096039590716459032250000010046911282935003321_" gradientUnits="userSpaceOnUse" x1="-22.9874" y1="31.2253" x2="-11.7499" y2="31.2253">
			<stop  offset="0.5475" style="stop-color:#FFF800"/>
			<stop  offset="1" style="stop-color:#FF5D00"/>
		</linearGradient>
		<path style="fill:url(#SVGID_00000096039590716459032250000010046911282935003321_);" d="M-16-1.5h-2.74
			c-2.35,0-4.25,1.9-4.25,4.25V59.7c0,2.35,1.9,4.25,4.25,4.25H-16c2.35,0,4.25-1.9,4.25-4.25V2.75C-11.75,0.41-13.65-1.5-16-1.5z"
			/>
		
			<linearGradient id="SVGID_00000103242234643225646200000007184877202029280136_" gradientUnits="userSpaceOnUse" x1="-3068.8958" y1="-10787.0117" x2="-3059.6411" y2="-10787.0117" gradientTransform="matrix(0.5602 -0.8283 0.8283 0.5602 10625.2168 3501.1736)">
			<stop  offset="0.5475" style="stop-color:#FFF800"/>
			<stop  offset="1" style="stop-color:#FF5D00"/>
		</linearGradient>
		<path style="fill:url(#SVGID_00000103242234643225646200000007184877202029280136_);" d="M-40.04-14.05l-1.26,1.87
			c-1.08,1.6-0.66,3.78,0.94,4.86l21.99,14.87c1.6,1.08,3.78,0.66,4.86-0.94l1.26-1.87c1.08-1.6,0.66-3.78-0.94-4.86l-21.99-14.87
			C-36.78-16.07-38.96-15.65-40.04-14.05z"/>
		<g>
			<path class="st4" d="M-70.47-76.83c0.35-0.91,0.33-1.65-0.07-2.22c-0.4-0.56-1.08-0.85-2.05-0.85h-1.12
				c-1.52,0-2.51,0.74-2.99,2.22l-0.38,1.2h-8.13l-0.37-1.2c-0.47-1.48-1.47-2.22-2.99-2.22h-1.14c-0.96,0-1.64,0.28-2.04,0.85
				c-0.4,0.56-0.42,1.3-0.08,2.22l6.62,17.62c0.53,1.43,1.55,2.14,3.05,2.14h2c1.51,0,2.53-0.71,3.06-2.14L-70.47-76.83z
				 M-78.53-72.02l-2.63,8.03l-2.6-8.03H-78.53z"/>
			<path class="st4" d="M-52.34-61.88c0.86,0,1.52-0.23,1.96-0.68c0.45-0.45,0.67-1.11,0.67-1.97v-12.13c0-3.39-0.77-5.86-2.3-7.43
				c-1.53-1.56-3.92-2.35-7.16-2.35c-3.62,0-6.23,1-7.82,2.99c-0.6,0.74-0.8,1.42-0.6,2.03c0.19,0.62,0.74,1.03,1.63,1.25l0.89,0.22
				c0.27,0.06,0.52,0.09,0.75,0.1c0.23,0.01,0.43-0.01,0.59-0.04c0.16-0.03,0.34-0.1,0.54-0.21c0.19-0.11,0.35-0.2,0.48-0.29
				c0.12-0.09,0.29-0.22,0.51-0.39c0.9-0.72,1.86-1.08,2.86-1.08c2.34,0,3.51,1.33,3.51,3.99V-76c-0.37-0.76-1.03-1.37-1.98-1.84
				c-0.95-0.47-1.98-0.7-3.1-0.7c-2.3,0-4.15,0.75-5.57,2.26c-1.42,1.51-2.12,3.58-2.12,6.2c0,2.65,0.69,4.72,2.09,6.22
				c1.39,1.5,3.23,2.25,5.53,2.25c1.29,0,2.4-0.25,3.33-0.74c0.93-0.49,1.62-1.13,2.07-1.91c0.05,0.81,0.27,1.41,0.65,1.79
				c0.38,0.38,0.98,0.58,1.78,0.58H-52.34z M-59.08-74.2c1.03,0,1.85,0.36,2.48,1.09c0.63,0.72,0.94,1.74,0.94,3.04
				c0,1.28-0.32,2.29-0.95,3.02c-0.64,0.73-1.46,1.09-2.48,1.09c-1.01,0-1.83-0.37-2.47-1.1c-0.64-0.73-0.96-1.74-0.96-3.01
				c0-1.3,0.32-2.32,0.96-3.04C-60.92-73.84-60.09-74.2-59.08-74.2z"/>
			<path class="st4" d="M-36.87-80.13c-2.88,0-5.19,0.84-6.92,2.51c-1.73,1.67-2.6,3.92-2.6,6.74c0,2.76,0.87,4.99,2.6,6.69
				c1.73,1.7,4,2.55,6.79,2.55c2.63,0,4.73-0.69,6.32-2.08c1.59-1.38,2.5-3.32,2.72-5.8c0.15-1.78-0.73-2.66-2.66-2.66h-9.65
				c0.02-1.19,0.37-2.12,1.04-2.79c0.67-0.67,1.59-1,2.75-1c1.14,0,2.17,0.35,3.09,1.05c0.22,0.16,0.38,0.29,0.51,0.38
				c0.12,0.09,0.27,0.18,0.45,0.27c0.18,0.09,0.35,0.15,0.5,0.17c0.15,0.02,0.34,0.03,0.55,0.02c0.22-0.01,0.45-0.04,0.71-0.1
				l0.48-0.12c0.89-0.22,1.41-0.57,1.55-1.05c0.14-0.49-0.09-1.09-0.7-1.81c-0.78-0.93-1.81-1.66-3.09-2.19
				C-33.72-79.87-35.2-80.13-36.87-80.13z M-33.53-68.66c-0.06,0.96-0.39,1.73-0.99,2.29c-0.6,0.56-1.37,0.85-2.32,0.85
				c-0.93,0-1.71-0.28-2.32-0.83c-0.62-0.55-0.96-1.32-1.05-2.31H-33.53z"/>
			<path class="st4" d="M-13.31-61.65c2.34,0,4.04-0.65,5.1-1.95c1.06-1.3,1.59-3.38,1.59-6.22v-7.42c0-0.86-0.23-1.52-0.68-1.98
				c-0.45-0.46-1.11-0.68-1.97-0.68h-0.82c-0.86,0-1.52,0.23-1.98,0.68c-0.46,0.46-0.68,1.12-0.68,1.98v6.8
				c0,1.32-0.23,2.29-0.7,2.9c-0.47,0.61-1.2,0.92-2.21,0.92c-1.04,0-1.78-0.32-2.22-0.95c-0.44-0.64-0.66-1.63-0.66-2.99v-6.68
				c0-0.86-0.23-1.52-0.68-1.98c-0.46-0.46-1.12-0.68-1.98-0.68h-0.82c-0.86,0-1.52,0.23-1.97,0.68c-0.45,0.46-0.68,1.12-0.68,1.98
				v12.71c0,0.86,0.23,1.52,0.68,1.97c0.45,0.45,1.11,0.68,1.97,0.68h0.82c0.85,0,1.51-0.22,1.96-0.65c0.46-0.43,0.69-1.05,0.7-1.85
				c0.41,0.81,1.09,1.47,2.03,1.97C-15.55-61.9-14.49-61.65-13.31-61.65z"/>
			<path class="st4" d="M3.91-80.16c-2.28,0-4.09,0.82-5.45,2.46c-1.35,1.64-2.03,3.91-2.03,6.82c0,2.9,0.67,5.17,2.02,6.8
				c1.35,1.63,3.17,2.45,5.46,2.45c1.14,0,2.21-0.27,3.21-0.82c1-0.54,1.7-1.28,2.09-2.2v5.99c0,0.86,0.23,1.52,0.68,1.97
				c0.46,0.45,1.12,0.68,1.98,0.68h0.8c0.86,0,1.52-0.23,1.98-0.68c0.46-0.45,0.68-1.11,0.68-1.97V-77.2c0-0.86-0.23-1.52-0.68-1.98
				c-0.46-0.46-1.12-0.68-1.98-0.68h-0.8c-0.83,0-1.48,0.18-1.95,0.54c-0.47,0.36-0.71,0.86-0.71,1.49v0.6
				c-0.4-0.89-1.1-1.6-2.09-2.13C6.11-79.89,5.05-80.16,3.91-80.16z M5.99-75.25c1.04,0,1.86,0.39,2.49,1.18
				c0.62,0.79,0.93,1.86,0.93,3.2c0,1.32-0.31,2.38-0.94,3.17c-0.63,0.79-1.46,1.18-2.49,1.18c-1.03,0-1.86-0.4-2.49-1.19
				c-0.64-0.8-0.95-1.85-0.95-3.16c0-1.33,0.32-2.4,0.95-3.19C4.1-74.85,4.94-75.25,5.99-75.25z"/>
			<path class="st4" d="M26.12-80.16c-2.28,0-4.09,0.82-5.45,2.46c-1.35,1.64-2.03,3.91-2.03,6.82c0,2.9,0.67,5.17,2.02,6.8
				c1.35,1.63,3.17,2.45,5.46,2.45c1.13,0,2.19-0.27,3.19-0.82c1-0.54,1.7-1.28,2.1-2.2l-0.02,0.35c-0.01,0.8,0.22,1.4,0.68,1.81
				c0.47,0.41,1.13,0.61,1.99,0.61h0.8c0.86,0,1.52-0.23,1.98-0.68c0.46-0.45,0.68-1.11,0.68-1.97V-77.2c0-0.86-0.23-1.52-0.68-1.98
				c-0.46-0.46-1.12-0.68-1.98-0.68h-0.8c-0.85,0-1.51,0.2-1.99,0.59c-0.47,0.39-0.7,0.98-0.69,1.75l0.02,0.29
				c-0.4-0.89-1.1-1.6-2.09-2.13C28.32-79.89,27.25-80.16,26.12-80.16z M28.19-75.25c1.04,0,1.86,0.39,2.49,1.18
				c0.62,0.79,0.93,1.86,0.93,3.2c0,1.32-0.31,2.38-0.94,3.17c-0.63,0.79-1.46,1.18-2.49,1.18c-1.03,0-1.86-0.4-2.49-1.19
				c-0.64-0.8-0.95-1.85-0.95-3.16c0-1.33,0.32-2.4,0.95-3.19C26.31-74.85,27.15-75.25,28.19-75.25z"/>
			<path class="st4" d="M56.28-85.74c-0.86,0-1.52,0.23-1.98,0.68c-0.46,0.46-0.68,1.12-0.68,1.98v5.99
				c-0.39-0.9-1.09-1.63-2.09-2.19c-1-0.56-2.07-0.84-3.21-0.84c-2.27,0-4.08,0.81-5.44,2.44c-1.36,1.63-2.04,3.9-2.04,6.83
				c0,2.91,0.68,5.18,2.05,6.8c1.36,1.62,3.18,2.43,5.43,2.43c1.16,0,2.23-0.26,3.22-0.78c0.99-0.52,1.68-1.22,2.07-2.1v0.6
				c0,0.64,0.24,1.13,0.71,1.49c0.47,0.36,1.12,0.54,1.95,0.54h0.8c0.86,0,1.52-0.23,1.98-0.68c0.46-0.46,0.68-1.12,0.68-1.98
				v-18.54c0-0.86-0.23-1.52-0.68-1.98c-0.46-0.46-1.12-0.68-1.98-0.68H56.28z M50.4-75.23c1.04,0,1.86,0.39,2.49,1.18
				c0.62,0.79,0.93,1.84,0.93,3.18c0,1.34-0.31,2.41-0.93,3.2c-0.62,0.79-1.45,1.18-2.5,1.18c-1.04,0-1.87-0.4-2.5-1.19
				c-0.63-0.8-0.95-1.86-0.95-3.19c0-1.31,0.32-2.37,0.96-3.16C48.54-74.84,49.37-75.23,50.4-75.23z"/>
			<path class="st4" d="M78.78-61.89c0.86,0,1.52-0.23,1.98-0.68c0.46-0.46,0.68-1.12,0.68-1.98v-12.71c0-0.86-0.23-1.52-0.68-1.97
				c-0.46-0.45-1.12-0.68-1.98-0.68h-0.82c-0.85,0-1.51,0.22-1.96,0.65c-0.46,0.44-0.68,1.05-0.68,1.85
				c-0.41-0.81-1.09-1.47-2.04-1.97c-0.95-0.5-2.01-0.75-3.19-0.75c-2.34,0-4.04,0.65-5.1,1.95c-1.06,1.3-1.59,3.37-1.59,6.21v7.42
				c0,0.86,0.23,1.52,0.68,1.98c0.46,0.46,1.12,0.68,1.98,0.68h0.8c0.86,0,1.52-0.23,1.98-0.68c0.46-0.46,0.68-1.12,0.68-1.98v-6.8
				c0-1.32,0.23-2.29,0.7-2.9c0.47-0.61,1.2-0.92,2.21-0.92c1.04,0,1.78,0.32,2.22,0.95c0.45,0.64,0.67,1.63,0.67,2.99v6.68
				c0,0.86,0.23,1.52,0.68,1.98c0.45,0.46,1.11,0.68,1.97,0.68H78.78z"/>
			<g>
				<path class="st4" d="M88.28-60.49c-1.15,0-2.06,0.28-2.74,0.83c-0.68,0.55-1.02,1.37-1.02,2.45c0,1.06,0.34,1.87,1.03,2.44
					c0.69,0.57,1.6,0.85,2.74,0.85c1.06,0,1.96-0.29,2.69-0.87c0.73-0.58,1.09-1.39,1.09-2.43c0-1.05-0.36-1.86-1.09-2.43
					C90.25-60.2,89.35-60.49,88.28-60.49z M87.79-79.25c-0.96,0-1.69,0.25-2.19,0.77c-0.5,0.51-0.75,1.25-0.75,2.22v11.1
					c0,0.97,0.25,1.71,0.75,2.21s1.23,0.76,2.19,0.76h0.96c0.96,0,1.69-0.25,2.19-0.76c0.5-0.51,0.75-1.24,0.75-2.21v-11.1
					c0-0.97-0.25-1.71-0.75-2.22c-0.5-0.51-1.23-0.77-2.19-0.77H87.79z"/>
			</g>
		</g>
	</g>
</symbol>
<use xlink:href="#Novo_símbolo_5"  width="184.12" height="172.84" x="-92.06" y="-86.42" transform="matrix(12.3738 0 0 -12.3738 1500 1500)" style="overflow:visible;"/>
</svg>
