<?xml version="1.0" encoding="utf-8"?>
<!-- Generator: Adobe Illustrator 26.0.3, SVG Export Plug-In . SVG Version: 6.00 Build 0)  -->
<svg version="1.1" id="Camada_1" xmlns="http://www.w3.org/2000/svg" xmlns:xlink="http://www.w3.org/1999/xlink" x="0px" y="0px"
	 viewBox="0 0 3000 3000" style="enable-background:new 0 0 3000 3000;" xml:space="preserve">
<style type="text/css">
	.st0{fill:url(#SVGID_1_);}
	.st1{fill:url(#SVGID_00000146475870314114716620000009117486644360545946_);}
	.st2{fill:url(#SVGID_00000172412522938006255270000001606989330127227015_);}
	.st3{fill:url(#SVGID_00000099643698704988916770000012756243053337763462_);}
</style>
<symbol  id="Novo_símbolo_8" viewBox="-217.31 -58.82 434.63 117.65">
	<rect x="-186.93" y="-32.8" style="fill:none;" width="369.18" height="58.88"/>
	
		<text transform="matrix(1 0 0 -1 -184.3574 -20.0713)" style="fill:#000C17; font-family:'UrbaneRounded-Heavy'; font-size:60.8971px;">Agendaqui</text>
	<g>
		
			<linearGradient id="SVGID_1_" gradientUnits="userSpaceOnUse" x1="576.1696" y1="-16730.6113" x2="492.5679" y2="-16831.2676" gradientTransform="matrix(0 -1 1 0 16948.6465 537.6663)">
			<stop  offset="0.5475" style="stop-color:#FFF800"/>
			<stop  offset="1" style="stop-color:#FF5D00"/>
		</linearGradient>
		<path class="st0" d="M163.2-51.65c-3.95,0-7.81,0.44-11.53,1.28c-2.92,0.64-4.56,3.84-3.48,6.68c0.86,2.26,3.2,3.58,5.51,3.06
			c3.07-0.68,6.24-1.04,9.5-1.04c24.45,0,44.35,20.29,44.35,45.25c0,17.63-9.92,32.93-24.36,40.39c-0.01,0.01-0.02,0.01-0.02,0.01
			c-6,3.11-12.78,4.86-19.97,4.86c-3.25,0-6.43-0.36-9.5-1.04c-2.31-0.52-4.65,0.81-5.51,3.06c-1.08,2.82,0.53,6.02,3.43,6.68
			c5.06,1.13,10.38,1.54,15.86,1.11c27.25-2.17,48.87-25.27,49.8-53.15c0.19-5.48-0.42-10.79-1.7-15.83l-0.06-0.2
			C209.4-34.17,188.26-51.65,163.2-51.65z"/>
		
			<linearGradient id="SVGID_00000165940999084968617500000012771268796265174423_" gradientUnits="userSpaceOnUse" x1="603.0692" y1="-16779.5273" x2="459.7516" y2="-16731.6094" gradientTransform="matrix(0 -1 1 0 16948.6465 537.6663)">
			<stop  offset="0.5475" style="stop-color:#FFF800"/>
			<stop  offset="1" style="stop-color:#FF5D00"/>
		</linearGradient>
		<path style="fill:url(#SVGID_00000165940999084968617500000012771268796265174423_);" d="M163.2-51.65
			c-3.95,0-7.81,0.44-11.53,1.28c-2.92,0.64-4.56,3.84-3.48,6.68c0.86,2.26,3.2,3.58,5.51,3.06c3.07-0.68,6.24-1.04,9.5-1.04
			c24.45,0,44.35,20.29,44.35,45.25c0,17.63-9.92,32.93-24.36,40.39c0.99-0.4,36.04-13.79,32.39-54.3l-0.06-0.2
			C209.4-34.17,188.26-51.65,163.2-51.65z"/>
	</g>
	<g>
		
			<linearGradient id="SVGID_00000062875536532965860100000005174662926942837121_" gradientUnits="userSpaceOnUse" x1="583.3458" y1="-665.2853" x2="499.744" y2="-765.9418" gradientTransform="matrix(-4.489700e-11 -1 -1 4.489700e-11 -883.3197 537.6663)">
			<stop  offset="0.5475" style="stop-color:#FFF800"/>
			<stop  offset="1" style="stop-color:#FF5D00"/>
		</linearGradient>
		<path style="fill:url(#SVGID_00000062875536532965860100000005174662926942837121_);" d="M-163.2-58.82
			c3.95,0,7.81,0.44,11.53,1.28c2.92,0.64,4.56,3.84,3.48,6.68c-0.86,2.26-3.2,3.58-5.51,3.06c-3.07-0.68-6.24-1.04-9.5-1.04
			c-24.45,0-44.35,20.29-44.35,45.25c0,17.63,9.92,32.93,24.36,40.39c0.01,0.01,0.02,0.01,0.02,0.01c6,3.11,12.78,4.86,19.97,4.86
			c3.25,0,6.43-0.36,9.5-1.04c2.31-0.52,4.65,0.81,5.51,3.06c1.08,2.82-0.53,6.02-3.43,6.68c-5.06,1.13-10.38,1.54-15.86,1.11
			c-27.25-2.17-48.87-25.27-49.8-53.15c-0.19-5.48,0.42-10.79,1.7-15.83l0.06-0.2C-209.4-41.34-188.26-58.82-163.2-58.82z"/>
		
			<linearGradient id="SVGID_00000010296799992859439750000015051971709328712861_" gradientUnits="userSpaceOnUse" x1="610.2453" y1="-714.2014" x2="466.9278" y2="-666.2844" gradientTransform="matrix(-4.489700e-11 -1 -1 4.489700e-11 -883.3197 537.6663)">
			<stop  offset="0.5475" style="stop-color:#FFF800"/>
			<stop  offset="1" style="stop-color:#FF5D00"/>
		</linearGradient>
		<path style="fill:url(#SVGID_00000010296799992859439750000015051971709328712861_);" d="M-163.2-58.82
			c3.95,0,7.81,0.44,11.53,1.28c2.92,0.64,4.56,3.84,3.48,6.68c-0.86,2.26-3.2,3.58-5.51,3.06c-3.07-0.68-6.24-1.04-9.5-1.04
			c-24.45,0-44.35,20.29-44.35,45.25c0,17.63,9.92,32.93,24.36,40.39c-0.99-0.4-36.04-13.79-32.39-54.3l0.06-0.2
			C-209.4-41.34-188.26-58.82-163.2-58.82z"/>
	</g>
</symbol>
<use xlink:href="#Novo_símbolo_8"  width="434.63" height="117.65" id="XMLID_00000162343044314011421910000009975396835379468704_" x="-217.31" y="-58.82" transform="matrix(6.1409 0 0 -6.1409 1500 1500)" style="overflow:visible;"/>
</svg>
