<?xml version="1.0" encoding="utf-8"?>
<!-- Generator: Adobe Illustrator 26.0.3, SVG Export Plug-In . SVG Version: 6.00 Build 0)  -->
<svg version="1.1" id="Camada_1" xmlns="http://www.w3.org/2000/svg" xmlns:xlink="http://www.w3.org/1999/xlink" x="0px" y="0px"
	 viewBox="0 0 3000 3000" style="enable-background:new 0 0 3000 3000;" xml:space="preserve">
<style type="text/css">
	.st0{fill:url(#SVGID_1_);}
	.st1{fill:url(#SVGID_00000052082196585388424530000000693846677393208227_);}
	.st2{fill:url(#SVGID_00000129887779254261656890000016365245818963325359_);}
	.st3{fill:url(#SVGID_00000134217066339479553980000006124275851086628541_);}
	.st4{fill:#000C17;}
</style>
<symbol  id="Novo_símbolo_6" viewBox="-92.06 -77 184.12 163.42">
	<g>
		<g>
			
				<linearGradient id="SVGID_1_" gradientUnits="userSpaceOnUse" x1="558.1827" y1="-16902.6602" x2="465.0893" y2="-17014.7461" gradientTransform="matrix(0 -1 1 0 16948.6465 537.6663)">
				<stop  offset="0" style="stop-color:#9E005D"/>
				<stop  offset="0.2486" style="stop-color:#A1005C"/>
				<stop  offset="1" style="stop-color:#EB0051"/>
			</linearGradient>
			<path class="st0" d="M-15.7-33.58c-4.54,0-8.98,0.48-13.25,1.39c-3.36,0.7-5.24,4.17-3.99,7.25c0.99,2.45,3.68,3.89,6.33,3.33
				c3.52-0.74,7.17-1.13,10.91-1.13c28.09,0,50.96,22.04,50.96,49.16c0,19.15-11.39,35.77-27.99,43.88
				c-0.01,0.01-0.03,0.01-0.03,0.01c-6.89,3.38-14.69,5.28-22.94,5.28c-3.74,0-7.39-0.39-10.91-1.13c-2.66-0.56-5.34,0.88-6.33,3.33
				c-1.25,3.07,0.61,6.54,3.94,7.25c5.81,1.23,11.93,1.67,18.22,1.2C20.53,83.88,45.36,58.8,46.43,28.5
				c0.22-5.95-0.48-11.72-1.96-17.2l-0.06-0.22C37.38-14.59,13.09-33.58-15.7-33.58z"/>
			
				<linearGradient id="SVGID_00000173883765670047437830000004543703716875427738_" gradientUnits="userSpaceOnUse" x1="586.8086" y1="-16956.9902" x2="430.2115" y2="-16904.6328" gradientTransform="matrix(0 -1 1 0 16948.6465 537.6663)">
				<stop  offset="0" style="stop-color:#9E005D"/>
				<stop  offset="0.2486" style="stop-color:#A1005C"/>
				<stop  offset="1" style="stop-color:#EB0051"/>
			</linearGradient>
			<path style="fill:url(#SVGID_00000173883765670047437830000004543703716875427738_);" d="M-15.7-33.58
				c-4.54,0-8.98,0.48-13.25,1.39c-3.36,0.7-5.24,4.17-3.99,7.25c0.99,2.45,3.68,3.89,6.33,3.33c3.52-0.74,7.17-1.13,10.91-1.13
				c28.09,0,50.96,22.04,50.96,49.16c0,19.15-11.39,35.77-27.99,43.88c1.13-0.43,41.41-14.98,37.21-58.99l-0.06-0.22
				C37.38-14.59,13.09-33.58-15.7-33.58z"/>
		</g>
		
			<linearGradient id="SVGID_00000041270876027124796230000004656409322591828144_" gradientUnits="userSpaceOnUse" x1="-22.9874" y1="34.2339" x2="-11.7499" y2="34.2339">
			<stop  offset="0" style="stop-color:#9E005D"/>
			<stop  offset="0.2486" style="stop-color:#A1005C"/>
			<stop  offset="1" style="stop-color:#EB0051"/>
		</linearGradient>
		<path style="fill:url(#SVGID_00000041270876027124796230000004656409322591828144_);" d="M-16,3.3h-2.74
			c-2.35,0-4.25,1.9-4.25,4.25v53.38c0,2.35,1.9,4.25,4.25,4.25H-16c2.35,0,4.25-1.9,4.25-4.25V7.54C-11.75,5.2-13.65,3.3-16,3.3z"
			/>
		
			<linearGradient id="SVGID_00000069376941298332763480000007940709563785041036_" gradientUnits="userSpaceOnUse" x1="-3073.1296" y1="-10784.2598" x2="-3063.5476" y2="-10784.2598" gradientTransform="matrix(0.5602 -0.8283 0.8283 0.5602 10625.2168 3501.1736)">
			<stop  offset="0" style="stop-color:#9E005D"/>
			<stop  offset="0.2486" style="stop-color:#A1005C"/>
			<stop  offset="1" style="stop-color:#EB0051"/>
		</linearGradient>
		<path style="fill:url(#SVGID_00000069376941298332763480000007940709563785041036_);" d="M-40.04-8.58l-1.26,1.77
			c-1.08,1.51-0.66,3.57,0.94,4.59l21.99,14.06c1.6,1.02,3.78,0.63,4.86-0.89l1.26-1.77c1.08-1.51,0.66-3.57-0.94-4.59L-35.18-9.46
			C-36.78-10.49-38.96-10.09-40.04-8.58z"/>
		<g>
			<path class="st4" d="M-70.47-67.94c0.35-0.86,0.33-1.56-0.07-2.1c-0.4-0.53-1.08-0.8-2.05-0.8h-1.12c-1.52,0-2.51,0.7-2.99,2.1
				l-0.38,1.13h-8.13l-0.37-1.13c-0.47-1.4-1.47-2.1-2.99-2.1h-1.14c-0.96,0-1.64,0.27-2.04,0.8c-0.4,0.53-0.42,1.23-0.08,2.1
				l6.62,16.66c0.53,1.35,1.55,2.02,3.05,2.02h2c1.51,0,2.53-0.67,3.06-2.02L-70.47-67.94z M-78.53-63.38l-2.63,7.6l-2.6-7.6H-78.53
				z"/>
			<path class="st4" d="M-52.34-53.79c0.86,0,1.52-0.21,1.96-0.64c0.45-0.43,0.67-1.05,0.67-1.86v-11.47c0-3.2-0.77-5.54-2.3-7.02
				c-1.53-1.48-3.92-2.22-7.16-2.22c-3.62,0-6.23,0.94-7.82,2.82c-0.6,0.7-0.8,1.34-0.6,1.92c0.19,0.58,0.74,0.97,1.63,1.18
				l0.89,0.2c0.27,0.06,0.52,0.09,0.75,0.09c0.23,0,0.43-0.01,0.59-0.04c0.16-0.03,0.34-0.09,0.54-0.2c0.19-0.1,0.35-0.19,0.48-0.28
				c0.12-0.08,0.29-0.21,0.51-0.37c0.9-0.68,1.86-1.02,2.86-1.02c2.34,0,3.51,1.26,3.51,3.77v1.76c-0.37-0.72-1.03-1.3-1.98-1.74
				c-0.95-0.44-1.98-0.66-3.1-0.66c-2.3,0-4.15,0.71-5.57,2.14c-1.42,1.43-2.12,3.38-2.12,5.86c0,2.5,0.69,4.46,2.09,5.89
				c1.39,1.42,3.23,2.13,5.53,2.13c1.29,0,2.4-0.23,3.33-0.7c0.93-0.47,1.62-1.07,2.07-1.8c0.05,0.77,0.27,1.33,0.65,1.7
				c0.38,0.36,0.98,0.55,1.78,0.55H-52.34z M-59.08-65.45c1.03,0,1.85,0.34,2.48,1.03c0.63,0.68,0.94,1.64,0.94,2.87
				c0,1.21-0.32,2.16-0.95,2.85c-0.64,0.69-1.46,1.03-2.48,1.03c-1.01,0-1.83-0.35-2.47-1.04c-0.64-0.69-0.96-1.64-0.96-2.84
				c0-1.23,0.32-2.19,0.96-2.87C-60.92-65.11-60.09-65.45-59.08-65.45z"/>
			<path class="st4" d="M-36.87-71.05c-2.88,0-5.19,0.79-6.92,2.37c-1.73,1.58-2.6,3.71-2.6,6.37c0,2.61,0.87,4.72,2.6,6.33
				c1.73,1.61,4,2.42,6.79,2.42c2.63,0,4.73-0.65,6.32-1.96c1.59-1.31,2.5-3.14,2.72-5.49c0.15-1.68-0.73-2.52-2.66-2.52h-9.65
				c0.02-1.13,0.37-2,1.04-2.63c0.67-0.63,1.59-0.95,2.75-0.95c1.14,0,2.17,0.33,3.09,0.99c0.22,0.16,0.38,0.27,0.51,0.36
				c0.12,0.08,0.27,0.17,0.45,0.25c0.18,0.09,0.35,0.14,0.5,0.16c0.15,0.02,0.34,0.03,0.55,0.02c0.22-0.01,0.45-0.04,0.71-0.09
				l0.48-0.12c0.89-0.2,1.41-0.54,1.55-1c0.14-0.46-0.09-1.03-0.7-1.71c-0.78-0.88-1.81-1.57-3.09-2.07
				C-33.72-70.8-35.2-71.05-36.87-71.05z M-33.53-60.21c-0.06,0.91-0.39,1.63-0.99,2.17c-0.6,0.53-1.37,0.8-2.32,0.8
				c-0.93,0-1.71-0.26-2.32-0.79c-0.62-0.52-0.96-1.25-1.05-2.18H-33.53z"/>
			<path class="st4" d="M-13.31-53.57c2.34,0,4.04-0.62,5.1-1.85c1.06-1.23,1.59-3.19,1.59-5.88v-7.01c0-0.81-0.23-1.44-0.68-1.87
				c-0.45-0.43-1.11-0.65-1.97-0.65h-0.82c-0.86,0-1.52,0.22-1.98,0.65c-0.46,0.43-0.68,1.05-0.68,1.87v6.43
				c0,1.25-0.23,2.17-0.7,2.74c-0.47,0.58-1.2,0.87-2.21,0.87c-1.04,0-1.78-0.3-2.22-0.9c-0.44-0.6-0.66-1.54-0.66-2.82v-6.31
				c0-0.81-0.23-1.44-0.68-1.87c-0.46-0.43-1.12-0.65-1.98-0.65h-0.82c-0.86,0-1.52,0.22-1.97,0.65c-0.45,0.43-0.68,1.05-0.68,1.87
				v12.02c0,0.81,0.23,1.44,0.68,1.86c0.45,0.43,1.11,0.64,1.97,0.64h0.82c0.85,0,1.51-0.2,1.96-0.61c0.46-0.41,0.69-0.99,0.7-1.75
				c0.41,0.77,1.09,1.39,2.03,1.86C-15.55-53.81-14.49-53.57-13.31-53.57z"/>
			<path class="st4" d="M3.91-71.08c-2.28,0-4.09,0.78-5.45,2.33c-1.35,1.55-2.03,3.7-2.03,6.45c0,2.74,0.67,4.89,2.02,6.43
				s3.17,2.31,5.46,2.31c1.14,0,2.21-0.26,3.21-0.77c1-0.51,1.7-1.21,2.09-2.08v5.66c0,0.81,0.23,1.44,0.68,1.86
				c0.46,0.43,1.12,0.64,1.98,0.64h0.8c0.86,0,1.52-0.21,1.98-0.64c0.46-0.43,0.68-1.05,0.68-1.86v-17.53
				c0-0.81-0.23-1.44-0.68-1.87c-0.46-0.43-1.12-0.65-1.98-0.65h-0.8c-0.83,0-1.48,0.17-1.95,0.51c-0.47,0.34-0.71,0.81-0.71,1.41
				v0.57c-0.4-0.84-1.1-1.52-2.09-2.02C6.11-70.83,5.05-71.08,3.91-71.08z M5.99-66.44c1.04,0,1.86,0.37,2.49,1.12
				c0.62,0.75,0.93,1.76,0.93,3.03c0,1.25-0.31,2.25-0.94,3c-0.63,0.75-1.46,1.12-2.49,1.12c-1.03,0-1.86-0.38-2.49-1.13
				c-0.64-0.75-0.95-1.75-0.95-2.99c0-1.26,0.32-2.27,0.95-3.02C4.1-66.06,4.94-66.44,5.99-66.44z"/>
			<path class="st4" d="M26.12-71.08c-2.28,0-4.09,0.78-5.45,2.33c-1.35,1.55-2.03,3.7-2.03,6.45c0,2.74,0.67,4.89,2.02,6.43
				s3.17,2.31,5.46,2.31c1.13,0,2.19-0.26,3.19-0.77c1-0.51,1.7-1.21,2.1-2.08l-0.02,0.33c-0.01,0.76,0.22,1.33,0.68,1.71
				c0.47,0.38,1.13,0.57,1.99,0.57h0.8c0.86,0,1.52-0.21,1.98-0.64c0.46-0.43,0.68-1.05,0.68-1.86v-11.99
				c0-0.81-0.23-1.44-0.68-1.87c-0.46-0.43-1.12-0.65-1.98-0.65h-0.8c-0.85,0-1.51,0.19-1.99,0.56c-0.47,0.37-0.7,0.92-0.69,1.65
				l0.02,0.28c-0.4-0.84-1.1-1.52-2.09-2.02C28.32-70.83,27.25-71.08,26.12-71.08z M28.19-66.44c1.04,0,1.86,0.37,2.49,1.12
				c0.62,0.75,0.93,1.76,0.93,3.03c0,1.25-0.31,2.25-0.94,3c-0.63,0.75-1.46,1.12-2.49,1.12c-1.03,0-1.86-0.38-2.49-1.13
				c-0.64-0.75-0.95-1.75-0.95-2.99c0-1.26,0.32-2.27,0.95-3.02C26.31-66.06,27.15-66.44,28.19-66.44z"/>
			<path class="st4" d="M56.28-76.36c-0.86,0-1.52,0.22-1.98,0.65c-0.46,0.43-0.68,1.05-0.68,1.87v5.66
				c-0.39-0.85-1.09-1.54-2.09-2.07c-1-0.53-2.07-0.79-3.21-0.79c-2.27,0-4.08,0.77-5.44,2.31c-1.36,1.54-2.04,3.69-2.04,6.45
				c0,2.75,0.68,4.9,2.05,6.43c1.36,1.53,3.18,2.3,5.43,2.3c1.16,0,2.23-0.25,3.22-0.73c0.99-0.49,1.68-1.15,2.07-1.99v0.57
				c0,0.6,0.24,1.07,0.71,1.41c0.47,0.34,1.12,0.51,1.95,0.51h0.8c0.86,0,1.52-0.22,1.98-0.65c0.46-0.43,0.68-1.05,0.68-1.87v-17.53
				c0-0.81-0.23-1.44-0.68-1.87c-0.46-0.43-1.12-0.65-1.98-0.65H56.28z M50.4-66.42c1.04,0,1.86,0.37,2.49,1.11
				c0.62,0.74,0.93,1.74,0.93,3c0,1.27-0.31,2.28-0.93,3.03c-0.62,0.75-1.45,1.12-2.5,1.12c-1.04,0-1.87-0.38-2.5-1.13
				c-0.63-0.75-0.95-1.76-0.95-3.02c0-1.24,0.32-2.24,0.96-2.99C48.54-66.05,49.37-66.42,50.4-66.42z"/>
			<path class="st4" d="M78.78-53.81c0.86,0,1.52-0.22,1.98-0.65c0.46-0.43,0.68-1.05,0.68-1.87v-12.02c0-0.81-0.23-1.44-0.68-1.86
				c-0.46-0.43-1.12-0.64-1.98-0.64h-0.82c-0.85,0-1.51,0.21-1.96,0.62c-0.46,0.41-0.68,1-0.68,1.75c-0.41-0.77-1.09-1.39-2.04-1.86
				c-0.95-0.48-2.01-0.71-3.19-0.71c-2.34,0-4.04,0.61-5.1,1.84c-1.06,1.23-1.59,3.18-1.59,5.87v7.01c0,0.81,0.23,1.44,0.68,1.87
				c0.46,0.43,1.12,0.65,1.98,0.65h0.8c0.86,0,1.52-0.22,1.98-0.65c0.46-0.43,0.68-1.05,0.68-1.87v-6.43c0-1.25,0.23-2.17,0.7-2.74
				c0.47-0.58,1.2-0.87,2.21-0.87c1.04,0,1.78,0.3,2.22,0.9c0.45,0.6,0.67,1.54,0.67,2.82v6.31c0,0.81,0.23,1.44,0.68,1.87
				c0.45,0.43,1.11,0.65,1.97,0.65H78.78z"/>
			<g>
				<path class="st4" d="M88.28-52.48c-1.15,0-2.06,0.26-2.74,0.78c-0.68,0.52-1.02,1.3-1.02,2.31c0,1,0.34,1.77,1.03,2.31
					c0.69,0.54,1.6,0.81,2.74,0.81c1.06,0,1.96-0.27,2.69-0.82c0.73-0.55,1.09-1.31,1.09-2.29c0-0.99-0.36-1.76-1.09-2.29
					C90.25-52.21,89.35-52.48,88.28-52.48z M87.79-70.22c-0.96,0-1.69,0.24-2.19,0.72c-0.5,0.48-0.75,1.18-0.75,2.1v10.5
					c0,0.92,0.25,1.62,0.75,2.09s1.23,0.72,2.19,0.72h0.96c0.96,0,1.69-0.24,2.19-0.72c0.5-0.48,0.75-1.18,0.75-2.09v-10.5
					c0-0.92-0.25-1.62-0.75-2.1c-0.5-0.48-1.23-0.72-2.19-0.72H87.79z"/>
			</g>
		</g>
	</g>
</symbol>
<use xlink:href="#Novo_símbolo_6"  width="184.12" height="163.42" id="XMLID_00000179630043031065742430000009068639494794230419_" x="-92.06" y="-77" transform="matrix(12.3696 0 0 -12.3696 1500 1500)" style="overflow:visible;"/>
</svg>
