<?xml version="1.0" encoding="utf-8"?>
<!-- Generator: Adobe Illustrator 26.0.3, SVG Export Plug-In . SVG Version: 6.00 Build 0)  -->
<svg version="1.1" id="Camada_1" xmlns="http://www.w3.org/2000/svg" xmlns:xlink="http://www.w3.org/1999/xlink" x="0px" y="0px"
	 viewBox="0 0 3000 3000" style="enable-background:new 0 0 3000 3000;" xml:space="preserve">
<style type="text/css">
	.st0{fill:#000C17;}
	.st1{fill:url(#SVGID_1_);}
	.st2{fill:url(#SVGID_00000147900271724507181880000014624488250516561294_);}
	.st3{fill:url(#SVGID_00000120535962465532868650000017360366890437916598_);}
	.st4{fill:url(#SVGID_00000077310309712741320380000018338916317003562398_);}
</style>
<symbol  id="Novo_símbolo_1" viewBox="-243.75 -49.46 487.49 98.91">
	<g>
		<g>
			<path class="st0" d="M-190.8-11.9c0.85-2.24,0.8-4.05-0.17-5.43c-0.97-1.38-2.65-2.08-5.04-2.08h-2.75
				c-3.72,0-6.16,1.81-7.32,5.43l-0.94,2.94h-19.92l-0.91-2.94c-1.16-3.62-3.6-5.43-7.32-5.43h-2.79c-2.36,0-4.03,0.69-5,2.08
				c-0.97,1.38-1.04,3.19-0.21,5.43l16.23,43.2c1.31,3.5,3.8,5.24,7.47,5.24h4.91c3.7,0,6.2-1.75,7.51-5.24L-190.8-11.9z
				 M-210.57-0.09l-6.45,19.7l-6.38-19.7H-210.57z"/>
			<path class="st0" d="M-146.35,24.78c2.11,0,3.72-0.55,4.81-1.66c1.09-1.11,1.64-2.72,1.64-4.83v-29.73
				c0-8.3-1.88-14.37-5.64-18.21c-3.76-3.84-9.62-5.75-17.56-5.75c-8.88,0-15.27,2.44-19.17,7.32c-1.46,1.81-1.95,3.47-1.47,4.98
				c0.48,1.51,1.81,2.53,4,3.06l2.19,0.53c0.65,0.15,1.26,0.23,1.83,0.25c0.57,0.01,1.05-0.02,1.45-0.09
				c0.4-0.08,0.84-0.25,1.32-0.51c0.48-0.26,0.87-0.5,1.17-0.72c0.3-0.21,0.72-0.53,1.25-0.96c2.21-1.76,4.55-2.64,7.02-2.64
				c5.74,0,8.6,3.26,8.6,9.77v4.57c-0.91-1.86-2.52-3.36-4.85-4.51c-2.33-1.15-4.86-1.72-7.6-1.72c-5.64,0-10.19,1.85-13.66,5.55
				c-3.47,3.7-5.21,8.77-5.21,15.21c0,6.49,1.7,11.58,5.11,15.26c3.41,3.68,7.93,5.53,13.57,5.53c3.17,0,5.89-0.6,8.17-1.81
				c2.28-1.21,3.97-2.77,5.08-4.68c0.13,1.99,0.66,3.45,1.6,4.4c0.94,0.94,2.4,1.41,4.36,1.41H-146.35z M-162.88-5.45
				c2.52,0,4.54,0.89,6.08,2.66c1.53,1.77,2.3,4.26,2.3,7.45c0,3.14-0.78,5.61-2.34,7.4c-1.56,1.79-3.58,2.68-6.08,2.68
				c-2.47,0-4.48-0.9-6.06-2.7c-1.57-1.8-2.36-4.26-2.36-7.38c0-3.19,0.79-5.68,2.36-7.45C-167.4-4.56-165.37-5.45-162.88-5.45z"/>
			<path class="st0" d="M-108.43-19.97c-7.07,0-12.73,2.05-16.98,6.15c-4.25,4.1-6.38,9.61-6.38,16.53c0,6.77,2.13,12.24,6.38,16.41
				c4.25,4.18,9.8,6.26,16.64,6.26c6.44,0,11.61-1.7,15.51-5.09c3.9-3.4,6.13-8.14,6.68-14.23c0.38-4.35-1.8-6.53-6.53-6.53h-23.66
				c0.05-2.92,0.9-5.2,2.55-6.83c1.65-1.64,3.89-2.45,6.74-2.45c2.79,0,5.32,0.85,7.58,2.57c0.53,0.4,0.94,0.71,1.25,0.92
				c0.3,0.21,0.67,0.43,1.11,0.66c0.44,0.23,0.85,0.36,1.23,0.42c0.38,0.05,0.83,0.07,1.36,0.06c0.53-0.01,1.11-0.09,1.74-0.25
				l1.17-0.3c2.19-0.53,3.45-1.39,3.79-2.58c0.34-1.19-0.23-2.67-1.72-4.43c-1.91-2.29-4.44-4.08-7.58-5.36
				C-100.7-19.33-104.33-19.97-108.43-19.97z M-100.24,8.14c-0.15,2.36-0.96,4.24-2.43,5.62c-1.47,1.38-3.36,2.08-5.68,2.08
				c-2.29,0-4.19-0.68-5.7-2.04s-2.36-3.25-2.57-5.66H-100.24z"/>
			<path class="st0" d="M-50.66,25.34c5.74,0,9.9-1.6,12.51-4.79c2.6-3.19,3.91-8.28,3.91-15.24v-18.19c0-2.11-0.55-3.73-1.66-4.85
				c-1.11-1.12-2.72-1.68-4.83-1.68h-2c-2.11,0-3.73,0.56-4.85,1.68c-1.12,1.12-1.68,2.74-1.68,4.85V3.8c0,3.25-0.57,5.62-1.72,7.11
				c-1.15,1.5-2.95,2.25-5.41,2.25c-2.54,0-4.35-0.78-5.43-2.34c-1.08-1.56-1.62-4-1.62-7.32v-16.38c0-2.11-0.56-3.73-1.68-4.85
				c-1.12-1.12-2.74-1.68-4.85-1.68h-2c-2.11,0-3.72,0.56-4.83,1.68c-1.11,1.12-1.66,2.74-1.66,4.85v31.17
				c0,2.11,0.55,3.72,1.66,4.83c1.11,1.11,2.72,1.66,4.83,1.66h2c2.09,0,3.69-0.53,4.81-1.58c1.12-1.06,1.69-2.57,1.72-4.53
				c1.01,1.99,2.67,3.6,4.98,4.83C-56.15,24.73-53.55,25.34-50.66,25.34z"/>
			<path class="st0" d="M-8.43-20.05c-5.58,0-10.04,2.01-13.36,6.04c-3.32,4.02-4.98,9.6-4.98,16.72c0,7.12,1.65,12.68,4.96,16.68
				s7.77,6,13.38,6c2.79,0,5.41-0.67,7.87-2c2.45-1.33,4.16-3.13,5.11-5.4v14.68c0,2.11,0.56,3.72,1.68,4.83
				c1.12,1.11,2.74,1.66,4.85,1.66h1.96c2.11,0,3.73-0.55,4.85-1.66c1.12-1.11,1.68-2.72,1.68-4.83V-12.8
				c0-2.11-0.56-3.73-1.68-4.85c-1.12-1.12-2.74-1.68-4.85-1.68h-1.96c-2.04,0-3.64,0.44-4.79,1.32c-1.16,0.88-1.74,2.1-1.74,3.66
				v1.47c-0.98-2.19-2.69-3.93-5.13-5.23C-3.03-19.4-5.64-20.05-8.43-20.05z M-3.34-8.01c2.54,0,4.57,0.97,6.09,2.91
				c1.52,1.94,2.28,4.55,2.28,7.85c0,3.25-0.77,5.84-2.3,7.77c-1.53,1.94-3.57,2.91-6.11,2.91c-2.52,0-4.55-0.98-6.11-2.92
				c-1.56-1.95-2.34-4.54-2.34-7.75c0-3.27,0.77-5.88,2.32-7.83C-7.96-7.04-5.91-8.01-3.34-8.01z"/>
			<path class="st0" d="M46.01-20.05c-5.58,0-10.04,2.01-13.36,6.04c-3.32,4.02-4.98,9.6-4.98,16.72c0,7.12,1.65,12.68,4.96,16.68
				s7.77,6,13.38,6c2.77,0,5.38-0.67,7.83-2c2.45-1.33,4.17-3.13,5.15-5.4l-0.04,0.87c-0.03,1.96,0.53,3.44,1.68,4.43
				c1.14,0.99,2.77,1.49,4.89,1.49h1.96c2.11,0,3.73-0.55,4.85-1.66c1.12-1.11,1.68-2.72,1.68-4.83V-12.8
				c0-2.11-0.56-3.73-1.68-4.85c-1.12-1.12-2.74-1.68-4.85-1.68h-1.96c-2.09,0-3.71,0.48-4.87,1.45c-1.16,0.97-1.72,2.4-1.7,4.28
				l0.04,0.72c-0.98-2.19-2.69-3.93-5.13-5.23C51.42-19.4,48.81-20.05,46.01-20.05z M51.11-8.01c2.54,0,4.57,0.97,6.09,2.91
				c1.52,1.94,2.28,4.55,2.28,7.85c0,3.25-0.77,5.84-2.3,7.77c-1.53,1.94-3.57,2.91-6.11,2.91c-2.52,0-4.55-0.98-6.11-2.92
				c-1.56-1.95-2.34-4.54-2.34-7.75c0-3.27,0.77-5.88,2.32-7.83C46.49-7.04,48.54-8.01,51.11-8.01z"/>
			<path class="st0" d="M119.97-33.75c-2.11,0-3.73,0.56-4.85,1.68c-1.12,1.12-1.68,2.74-1.68,4.85v14.68
				c-0.96-2.21-2.66-4.01-5.11-5.38c-2.45-1.37-5.08-2.06-7.87-2.06c-5.56,0-10.01,1.99-13.34,5.98c-3.33,3.99-5,9.57-5,16.73
				c0,7.14,1.67,12.7,5.02,16.68c3.35,3.97,7.79,5.96,13.32,5.96c2.84,0,5.48-0.64,7.9-1.91c2.43-1.27,4.12-2.99,5.08-5.15v1.47
				c0,1.56,0.58,2.78,1.74,3.66c1.16,0.88,2.75,1.32,4.79,1.32h1.96c2.11,0,3.73-0.56,4.85-1.68c1.12-1.12,1.68-2.74,1.68-4.85
				v-45.47c0-2.11-0.56-3.73-1.68-4.85c-1.12-1.12-2.74-1.68-4.85-1.68H119.97z M105.56-7.97c2.54,0,4.57,0.96,6.09,2.89
				c1.52,1.92,2.28,4.52,2.28,7.79c0,3.3-0.76,5.91-2.28,7.85c-1.52,1.94-3.57,2.91-6.13,2.91c-2.54,0-4.58-0.98-6.13-2.92
				c-1.55-1.95-2.32-4.56-2.32-7.83c0-3.22,0.79-5.8,2.36-7.75C101-7,103.04-7.97,105.56-7.97z"/>
			<path class="st0" d="M175.14,24.74c2.11,0,3.73-0.56,4.85-1.68c1.12-1.12,1.68-2.74,1.68-4.85v-31.17c0-2.11-0.56-3.72-1.68-4.83
				c-1.12-1.11-2.74-1.66-4.85-1.66h-2c-2.09,0-3.69,0.53-4.81,1.6c-1.12,1.07-1.68,2.58-1.68,4.55c-1.01-1.99-2.67-3.6-5-4.83
				c-2.33-1.23-4.94-1.85-7.83-1.85c-5.74,0-9.9,1.59-12.51,4.77c-2.6,3.18-3.91,8.26-3.91,15.23v18.19c0,2.11,0.56,3.73,1.68,4.85
				c1.12,1.12,2.74,1.68,4.85,1.68h1.96c2.11,0,3.73-0.56,4.85-1.68c1.12-1.12,1.68-2.74,1.68-4.85V1.53c0-3.25,0.57-5.62,1.72-7.11
				c1.14-1.5,2.95-2.25,5.41-2.25c2.54,0,4.36,0.78,5.45,2.34c1.09,1.56,1.64,4,1.64,7.32v16.38c0,2.11,0.55,3.73,1.66,4.85
				c1.11,1.12,2.72,1.68,4.83,1.68H175.14z"/>
		</g>
		<g>
			
				<linearGradient id="SVGID_1_" gradientUnits="userSpaceOnUse" x1="181.5475" y1="-9.094947e-13" x2="243.746" y2="-9.094947e-13">
				<stop  offset="0" style="stop-color:#FFF800"/>
				<stop  offset="1" style="stop-color:#FF5D00"/>
			</linearGradient>
			<path class="st1" d="M195.29-49.46c-3.54,0-7,0.39-10.33,1.14c-2.62,0.58-4.08,3.44-3.11,5.98c0.77,2.02,2.86,3.21,4.94,2.74
				c2.75-0.61,5.59-0.93,8.5-0.93C217.18-40.52,235-22.35,235,0c0,15.78-8.88,29.48-21.81,36.17c-0.01,0.01-0.02,0.01-0.02,0.01
				c-5.37,2.78-11.45,4.35-17.88,4.35c-2.91,0-5.76-0.32-8.5-0.93c-2.07-0.47-4.16,0.73-4.94,2.74c-0.97,2.53,0.48,5.39,3.07,5.98
				c4.53,1.01,9.3,1.38,14.2,0.99c24.4-1.94,43.76-22.62,44.59-47.59c0.17-4.91-0.38-9.66-1.53-14.17l-0.05-0.18
				C236.66-33.81,217.73-49.46,195.29-49.46z"/>
			
				<linearGradient id="SVGID_00000103965511398910199950000006504158996285985203_" gradientUnits="userSpaceOnUse" x1="181.55" y1="-6.6461" x2="242.4289" y2="-6.6461">
				<stop  offset="0.5475" style="stop-color:#FFF800"/>
				<stop  offset="1" style="stop-color:#FF5D00"/>
			</linearGradient>
			<path style="fill:url(#SVGID_00000103965511398910199950000006504158996285985203_);" d="M195.29-49.46
				c-3.54,0-7,0.39-10.33,1.14c-2.62,0.58-4.08,3.44-3.11,5.98c0.77,2.02,2.86,3.21,4.94,2.74c2.75-0.61,5.59-0.93,8.5-0.93
				C217.18-40.52,235-22.35,235,0c0,15.78-8.88,29.48-21.81,36.17c0.88-0.35,32.27-12.35,29-48.62l-0.05-0.18
				C236.66-33.81,217.73-49.46,195.29-49.46z"/>
		</g>
		
			<linearGradient id="SVGID_00000054969728602306873020000012792573937323244681_" gradientUnits="userSpaceOnUse" x1="194.2886" y1="6.4398" x2="203.0467" y2="6.4398">
			<stop  offset="0" style="stop-color:#FFF800"/>
			<stop  offset="1" style="stop-color:#FF5D00"/>
		</linearGradient>
		<path style="fill:url(#SVGID_00000054969728602306873020000012792573937323244681_);" d="M198.67-19.06L198.67-19.06
			c-2.42,0-4.38,1.96-4.38,4.38v42.24c0,2.42,1.96,4.38,4.38,4.38h0c2.42,0,4.38-1.96,4.38-4.38v-42.24
			C203.05-17.1,201.09-19.06,198.67-19.06z"/>
	</g>
	
		<linearGradient id="SVGID_00000140694871827079269150000016948228266245450121_" gradientUnits="userSpaceOnUse" x1="179.8855" y1="-20.7979" x2="202.7774" y2="-20.7979">
		<stop  offset="0" style="stop-color:#FFF800"/>
		<stop  offset="1" style="stop-color:#FF5D00"/>
	</linearGradient>
	<path style="fill:url(#SVGID_00000140694871827079269150000016948228266245450121_);" d="M180.5-28.12L180.5-28.12
		c-1.12,1.65-0.68,3.89,0.97,5.01l15.68,10.6c1.65,1.12,3.89,0.68,5.01-0.97v0c1.12-1.65,0.68-3.89-0.97-5.01l-15.68-10.6
		C183.86-30.2,181.62-29.77,180.5-28.12z"/>
</symbol>
<use xlink:href="#Novo_símbolo_1"  width="487.49" height="98.91" id="XMLID_00000057119229910547431190000012007010211794255286_" x="-243.75" y="-49.46" transform="matrix(4.956 0 0 -4.956 1500 1500)" style="overflow:visible;"/>
</svg>
